<svg xmlns="http://www.w3.org/2000/svg"  viewBox="0 0 100 100" width="400px" height="400px"><g id="Слой_2"><path d="M82.232,7.01c-1.204-1.886-3.254-3.009-5.487-3.009c-0.424,0-0.85,0.042-1.266,0.124 c-2.634,0.533-4.692,2.656-5.139,5.286c-0.002,0.011-0.401,2.121-1.641,5.209C64.619,11.489,58.833,9,50.751,9 c-7.166,0-13.726,3.477-18.5,7c-1.157-2.947-4.994-5.969-5-6c-0.44-2.593,1.404-5.341-1.212-5.87 c-0.439-0.087-0.863-0.128-1.284-0.128c-2.236,0-4.287,1.124-5.486,3.006c-11.623,18.266-4.798,36.24,0.305,45.329 c1.466,2.611,2.009,5.64,1.527,8.528c-0.736,4.418,0.082,8.992,2.304,12.88l5.703,9.98c0.497,0.871,1.204,1.629,2.043,2.187 l8.666,5.778C43.065,93.855,46.846,95,50.751,95c3.906,0,7.687-1.145,10.934-3.311l8.671-5.781 c0.87-0.582,1.59-1.368,2.092-2.282l5.646-9.882c2.222-3.888,3.036-8.49,2.291-12.957c-0.473-2.838,0.074-5.839,1.54-8.45 C87.029,43.248,93.854,25.274,82.232,7.01z" opacity=".35"/><path fill="#f2f2f2" d="M80.732,5.51c-1.204-1.886-3.254-3.009-5.487-3.009c-0.424,0-0.85,0.042-1.266,0.124 c-2.634,0.533-4.692,2.656-5.139,5.286c-0.002,0.011-0.401,2.121-1.641,5.209C63.119,9.989,57.333,7.5,49.251,7.5 c-7.166,0-13.284,1.83-18.058,5.353c-1.157-2.947-1.534-4.946-1.54-4.978c-0.44-2.593-2.498-4.717-5.114-5.246 c-0.439-0.087-0.863-0.128-1.284-0.128c-2.236,0-4.287,1.124-5.486,3.006c-11.623,18.266-4.798,36.24,0.305,45.329 c1.466,2.611,2.009,5.64,1.527,8.528c-0.736,4.418,0.082,8.992,2.304,12.88l5.703,9.98c0.497,0.871,1.204,1.629,2.043,2.187 l8.666,5.778c3.248,2.166,7.029,3.311,10.934,3.311c3.906,0,7.687-1.145,10.934-3.311l8.671-5.781 c0.87-0.582,1.59-1.368,2.092-2.282l5.646-9.882c2.222-3.888,3.036-8.49,2.291-12.957c-0.473-2.838,0.074-5.839,1.54-8.45 C85.529,41.748,92.354,23.774,80.732,5.51z"/><path fill="#ffc7a3" d="M33.251,80l8.672,5.781c2.17,1.447,4.72,2.219,7.328,2.219h0c2.608,0,5.158-0.772,7.328-2.219L65.251,80V50 h-32V80z"/><path fill="#f9b84f" d="M72.251,41c0-12.703-6-26-23-26c-18,0-23,13.297-23,26c0,3.584,0.82,6.976,2.283,10h16.088l1.63,14h6 l1.63-14h16.088C71.43,47.976,72.251,44.584,72.251,41z"/><path fill="#40396e" d="M23.251,10c0,0,2.466,14.795,16.34,25.755c3.01,2.378,4.892,5.908,5.224,9.729L46.251,65c0,0-2-5-11-8l2,6 l-4,17l-5.703-9.98c-1.486-2.6-2.028-5.633-1.536-8.587l0.013-0.076c0.728-4.371-0.114-8.839-2.284-12.703 C19.331,40.8,13.451,25.4,23.251,10z"/><path fill="#40396e" d="M75.249,10c0,0-2.466,14.795-16.34,25.755c-3.01,2.378-4.892,5.908-5.224,9.729L52.249,65 c0,0,2.002-5,11.002-8l-2.002,6l4,17l5.703-9.98c1.486-2.6,2.028-5.633,1.536-8.587l-0.013-0.076 c-0.728-4.371,0.114-8.839,2.284-12.703C79.169,40.8,85.049,25.4,75.249,10z"/><path fill="#f2f2f2" d="M42.251,52c0,0-2.347-7.042-10.563-5.868l0,0c1.47,2.94,4.289,4.972,7.543,5.437L42.251,52z"/><path fill="#f2f2f2" d="M55.688,52c0,0,2.347-7.042,10.562-5.868v0c-1.47,2.94-4.289,4.972-7.543,5.437L55.688,52z"/><path fill="#40396e" d="M46.132,88.174c-1.878-0.394-3.642-1.212-5.238-2.276l-7.394-4.93c-0.904-0.603-1.656-1.408-2.195-2.351 l-5.059-8.853c-1.624-2.842-2.32-6.162-1.746-9.384c0.729-4.095-0.012-8.333-2.066-11.991 c-4.556-8.114-10.672-24.126-0.448-40.194c0.333-0.523,0.957-0.783,1.562-0.664c0.608,0.123,1.078,0.608,1.182,1.221 c0.011,0.062,1.02,5.784,5.07,12.581c4.173-5.863,10.704-8.832,19.451-8.832c10.205,0,16.018,4.581,19.273,9.121 c4.195-6.924,5.235-12.807,5.246-12.871c0.104-0.611,0.574-1.097,1.182-1.22c0.606-0.12,1.229,0.142,1.562,0.664 c10.225,16.068,4.108,32.08-0.447,40.194c-2.022,3.601-2.772,7.764-2.113,11.721c0.561,3.361-0.048,6.764-1.7,9.654 l-5.357,9.101c-0.536,0.91-1.271,1.688-2.15,2.274l-7.336,4.891C54.129,88.218,50.117,89.01,46.132,88.174z M35.556,78.734 l7.107,4.738c1.104,0.736,2.311,1.326,3.597,1.652c3.338,0.846,6.736,0.246,9.487-1.59l7.195-4.796 c0.775-0.517,1.419-1.207,1.882-2.016l4.826-8.446c1.292-2.262,1.825-4.902,1.38-7.468c-0.822-4.746,0.045-9.655,2.421-13.887 c3.926-6.992,9.115-20.284,2.317-33.958c-0.952,2.995-2.752,7.483-6.001,12.278c-0.291,0.428-0.771,0.684-1.299,0.657 c-0.518-0.02-0.988-0.306-1.245-0.755c-3.654-6.398-9.7-9.643-17.971-9.643c-8.558,0-14.662,3.153-18.144,9.371 c-0.255,0.456-0.728,0.746-1.25,0.767c-0.538,0.023-1.017-0.231-1.306-0.666c-3.135-4.693-4.887-9.069-5.82-12.009 c-6.797,13.674-1.608,26.965,2.318,33.957c2.355,4.194,3.227,9.054,2.455,13.684c-0.447,2.682,0.036,5.379,1.346,7.672 l4.825,8.443C34.137,77.527,34.781,78.217,35.556,78.734z"/><path fill="#ffc571" d="M62.751,28c-0.422,0-0.843-0.178-1.139-0.523C56.192,21.153,50.96,21.003,50.74,21 c-0.824-0.013-1.489-0.688-1.483-1.511C49.263,18.665,49.927,18,50.751,18c0.273,0,6.763,0.086,13.139,7.523 c0.54,0.629,0.466,1.576-0.163,2.115C63.444,27.881,63.097,28,62.751,28z"/></g></svg>